<svg xmlns="http://www.w3.org/2000/svg" viewBox="0 0 1000 520" fill="none">
  <defs>
    <linearGradient id="continent" x1="122" y1="108" x2="864" y2="396" gradientUnits="userSpaceOnUse">
      <stop stop-color="#D8E7F5"/>
      <stop offset="1" stop-color="#C7D9EA"/>
    </linearGradient>
    <filter id="soft" x="80" y="70" width="840" height="360" filterUnits="userSpaceOnUse" color-interpolation-filters="sRGB">
      <feDropShadow dx="0" dy="16" stdDeviation="18" flood-color="#94A3B8" flood-opacity=".12"/>
    </filter>
  </defs>
  <g filter="url(#soft)" opacity=".96">
    <path d="M126 157C143 128 170 110 207 102C256 91 281 119 305 138C321 150 351 154 356 176C360 192 344 203 329 208C306 215 281 208 261 218C231 233 223 273 195 293C171 311 133 311 117 287C96 254 103 199 126 157Z" fill="url(#continent)"/>
    <path d="M281 327C308 317 342 318 361 333C377 345 374 372 360 389C341 412 307 427 279 416C249 404 242 360 255 339C261 330 271 323 281 327Z" fill="url(#continent)"/>
    <path d="M413 146C452 112 503 95 555 101C601 106 649 125 679 159C692 173 706 194 698 211C687 235 649 236 625 247C600 258 589 282 564 291C525 306 484 275 445 284C419 290 392 312 369 302C339 288 334 246 346 215C357 186 388 169 413 146Z" fill="url(#continent)"/>
    <path d="M487 327C509 312 543 309 566 322C594 338 611 376 594 405C576 436 532 449 500 437C469 426 445 391 453 360C457 345 470 337 487 327Z" fill="url(#continent)"/>
    <path d="M719 166C752 144 799 131 836 139C871 147 906 174 907 209C908 231 888 248 869 260C851 271 828 277 812 293C794 311 792 342 769 351C741 362 711 341 694 317C679 296 672 269 671 244C670 214 693 184 719 166Z" fill="url(#continent)"/>
    <path d="M785 365C808 353 837 351 858 363C886 378 906 410 894 436C880 466 836 475 803 467C771 459 743 430 748 399C751 382 769 374 785 365Z" fill="url(#continent)"/>
    <path d="M599 171C613 164 631 165 641 177C653 190 649 214 635 223C624 230 609 228 599 220C586 210 585 181 599 171Z" fill="#D4E3F1"/>
    <path d="M849 257C862 248 879 248 890 257C900 266 900 284 889 293C877 303 859 304 848 294C836 283 837 265 849 257Z" fill="#D4E3F1"/>
  </g>
</svg>
